<?xml version="1.0" standalone="no"?>
<!DOCTYPE svg PUBLIC "-//W3C//DTD SVG 20010904//EN"
 "http://www.w3.org/TR/2001/REC-SVG-20010904/DTD/svg10.dtd">
<svg version="1.0" xmlns="http://www.w3.org/2000/svg"
 width="1024.000000pt" height="1024.000000pt" viewBox="0 0 1024.000000 1024.000000"
 preserveAspectRatio="xMidYMid meet">

<g transform="translate(0.000000,1024.000000) scale(0.100000,-0.100000)"
fill="#000000" stroke="none">
<path d="M6945 8364 c-39 -20 -66 -42 -375 -314 -146 -128 -425 -372 -620
-543 -195 -170 -365 -321 -377 -336 -33 -38 -32 -119 2 -160 41 -47 103 -61
168 -36 16 7 17 -8 17 -232 0 -208 2 -242 18 -270 21 -39 225 -302 234 -303 3
0 4 229 1 508 l-5 508 68 59 c38 33 204 179 369 325 165 146 357 316 427 378
70 61 130 112 133 112 8 0 -21 25 481 -414 219 -192 423 -372 452 -400 l52
-50 0 -678 0 -678 34 -38 c32 -35 38 -37 94 -37 46 0 65 5 82 20 50 44 50 46
50 643 0 306 0 560 0 563 0 4 16 1 36 -6 43 -14 106 -5 134 20 26 24 43 80 36
119 -8 40 -40 71 -371 361 -143 125 -330 289 -415 364 -452 398 -577 506 -600
518 -34 17 -88 16 -125 -3z"/>
<path d="M1815 7109 c-56 -29 -91 -65 -118 -118 l-22 -46 0 -1065 c0 -876 2
-1072 14 -1104 19 -54 77 -115 136 -142 47 -22 62 -24 248 -24 l197 0 0 48 c1
153 109 334 251 419 146 87 346 84 501 -7 142 -85 222 -218 253 -422 l6 -38
722 -2 721 -3 8 -44 c12 -71 61 -162 121 -227 91 -98 218 -154 352 -154 218 0
400 130 469 336 l23 69 159 5 c175 6 195 12 259 75 19 20 45 55 57 78 23 42
23 47 23 427 0 458 13 407 -162 633 -64 84 -187 242 -272 352 -85 110 -191
247 -235 304 -106 137 -138 168 -205 200 l-56 26 -327 3 -326 3 -4 132 c-4
147 -16 183 -80 244 -70 67 26 63 -1390 63 l-1283 0 -40 -21z m3347 -696 l68
-6 80 -99 c44 -54 80 -100 80 -103 0 -3 -117 -5 -259 -5 -257 0 -260 0 -275
-22 -14 -19 -16 -62 -16 -270 0 -235 1 -249 20 -268 19 -19 33 -20 484 -20
l463 0 34 -23 c18 -12 46 -46 61 -76 l28 -53 0 -314 0 -314 -24 -15 c-18 -12
-46 -15 -126 -13 l-102 3 -18 48 c-40 106 -152 213 -269 258 -71 27 -226 37
-302 19 -132 -31 -257 -136 -314 -262 l-30 -67 -67 -1 -68 0 0 805 0 804 243
0 c133 -1 272 -3 309 -6z m125 -1528 c95 -40 153 -124 153 -220 0 -131 -98
-225 -234 -225 -123 1 -226 105 -226 229 0 158 166 275 307 216z"/>
<path d="M6748 6915 c-55 -30 -58 -49 -58 -342 0 -378 -13 -363 323 -363 206
0 215 1 248 23 57 39 59 46 59 345 l0 272 -34 38 -34 37 -239 2 c-197 2 -243
0 -265 -12z"/>
<path d="M7250 5862 c-66 -33 -98 -113 -67 -169 7 -13 86 -97 177 -188 l164
-165 -520 0 c-497 0 -520 -1 -551 -20 -40 -24 -63 -67 -63 -120 0 -32 7 -48
34 -78 l34 -37 528 -3 527 -3 -166 -167 c-102 -103 -168 -179 -173 -196 -12
-49 3 -99 41 -133 30 -28 42 -33 86 -33 34 0 62 7 83 20 35 21 554 551 573
584 18 31 15 87 -6 121 -27 44 -549 573 -582 590 -37 20 -76 19 -119 -3z"/>
<path d="M2675 4937 c-66 -22 -99 -43 -142 -90 -50 -54 -66 -85 -83 -156 -25
-107 7 -223 86 -311 82 -90 231 -124 349 -79 82 31 163 112 194 194 31 82 26
197 -11 270 -32 62 -103 130 -166 158 -58 25 -171 32 -227 14z"/>
<path d="M6790 3394 c-67 -18 -123 -50 -174 -101 -48 -47 -88 -131 -84 -175
l3 -33 106 -3 106 -3 12 30 c68 163 387 115 355 -54 -15 -84 -71 -115 -207
-115 -59 0 -97 -4 -105 -12 -17 -17 -16 -162 1 -176 6 -5 62 -12 122 -14 93
-3 116 -7 146 -26 96 -59 90 -197 -11 -256 -37 -22 -146 -29 -202 -14 -41 12
-88 57 -109 105 l-18 43 -99 0 c-115 0 -128 -7 -119 -69 12 -91 93 -193 191
-240 105 -51 263 -64 389 -31 96 24 154 58 211 121 136 152 96 381 -80 455
l-35 15 38 26 c86 58 125 130 125 232 1 110 -42 186 -139 244 -32 19 -82 42
-112 51 -69 20 -236 20 -311 0z"/>
<path d="M1646 3384 c-14 -14 -16 -78 -16 -559 0 -493 2 -545 17 -560 22 -23
198 -18 213 5 6 9 10 198 10 463 l0 447 220 0 220 0 0 -445 c0 -527 -11 -485
123 -485 59 0 89 5 105 16 l22 15 0 540 c0 526 0 539 -20 559 -19 19 -33 20
-449 20 -377 0 -431 -2 -445 -16z"/>
<path d="M2807 3388 c-15 -12 -17 -59 -17 -563 -1 -509 1 -551 17 -562 13 -10
99 -13 354 -13 294 0 340 2 353 16 22 22 23 176 1 194 -12 10 -74 13 -250 12
l-235 -1 0 125 0 124 203 0 c147 0 208 3 220 13 21 15 27 178 7 202 -10 12
-47 15 -221 15 l-209 0 0 115 0 115 233 0 c279 0 267 -5 267 113 0 55 -4 80
-16 91 -13 14 -59 16 -353 16 -254 0 -341 -3 -354 -12z"/>
<path d="M3736 3385 c-14 -15 -16 -69 -16 -560 l0 -544 22 -15 c32 -23 190
-22 212 0 13 13 16 44 16 188 l0 174 153 4 c145 4 155 5 218 35 157 73 229
201 216 383 -9 142 -84 251 -215 313 l-67 32 -261 3 c-232 3 -263 2 -278 -13z
m494 -228 c120 -64 106 -247 -23 -296 -16 -6 -75 -11 -133 -11 l-104 0 0 165
0 165 108 0 c94 0 115 -3 152 -23z"/>
<path d="M4726 3387 c-17 -13 -18 -44 -18 -543 0 -622 -2 -559 18 -578 13 -14
60 -16 354 -16 294 0 341 2 354 16 23 23 23 176 0 195 -13 10 -68 13 -250 13
l-234 -1 0 123 0 124 209 0 c177 0 212 2 225 16 12 11 16 36 16 99 0 63 -4 88
-16 99 -13 14 -48 16 -225 16 l-209 0 0 115 0 115 233 0 c279 0 267 -5 267
112 0 115 25 108 -371 108 -261 0 -339 -3 -353 -13z"/>
<path d="M5660 3380 c-20 -20 -20 -33 -20 -555 0 -522 0 -535 20 -555 19 -19
33 -20 351 -20 208 0 337 4 350 10 16 9 19 22 19 93 0 51 -5 90 -12 100 -12
15 -40 17 -244 17 -128 1 -234 3 -235 5 -2 2 -3 58 -1 124 l3 121 203 0 c246
0 236 -5 236 121 0 53 -5 90 -12 97 -9 9 -71 12 -219 12 l-208 0 -3 115 -3
115 230 0 c128 0 237 5 245 10 19 12 19 173 0 195 -11 13 -65 15 -346 15 -321
0 -335 -1 -354 -20z"/>
<path d="M7726 3384 c-13 -12 -16 -40 -16 -137 0 -253 -30 -511 -76 -658 -27
-86 -45 -107 -100 -116 -22 -3 -45 -10 -51 -16 -18 -13 -18 -378 -1 -395 8 -8
46 -12 105 -12 111 0 113 2 113 119 l0 81 340 0 340 0 0 -81 c0 -118 1 -119
118 -119 63 0 102 4 110 12 17 17 17 368 0 391 -9 11 -31 17 -68 19 l-55 3 -5
453 c-4 388 -7 454 -20 462 -9 6 -163 10 -367 10 -306 0 -354 -2 -367 -16z
m504 -554 l0 -350 -194 0 -194 0 20 63 c39 124 78 406 78 565 l0 72 145 0 145
0 0 -350z"/>
</g>
</svg>
